<?xml version="1.0" encoding="UTF-8"?>
<svg version="1.1" viewBox="0 0 1160 1164" width="1280" height="1280" xmlns="http://www.w3.org/2000/svg">
<path transform="translate(553,39)" d="m0 0h19l43 2 28 3 22 4 27 6 34 9 33 10 21 8 20 9 16 8 17 9 27 16 15 10 14 10 19 14 14 12 8 7 12 11 20 20 7 8 13 14 9 11 12 15 13 19 12 18 13 22 15 28 11 24 13 33 10 31 8 28 6 26 4 22 3 22 3 38v49l-4 45-6 35-6 27-8 28-8 24-11 27-10 23-10 19-10 18-12 20-13 19-9 12-10 13-11 13-9 11-39 39-8 7-15 13-13 10-19 14-23 15-22 13-29 15-23 11-26 10-29 9-43 11-36 7-34 4-27 2h-41l-27-2-42-6-36-7-32-9-25-9-39-16-16-8-27-14-23-14-16-11-14-10-10-8-16-13-14-12-16-15-16-16-7-8-12-13-9-11-14-18-22-33-9-15-13-23-12-25-12-29-12-36-2-8 5-3 33-10 26-7 20-6 22-6 6-2 4 9 7 20 8 20 12 26 10 19 12 20 11 16 14 19 11 13 9 10 11 12 10 10 8 7 12 11 20 15 18 13 27 16 23 12 24 11 30 11 20 6 24 6 31 5 29 3 21 1h23l22-1 40-5 37-8 35-11 32-13 28-14 20-12 24-16 16-12 10-8 14-12 13-12 16-16 1-2h2l2-4 10-11 13-17 11-15 11-17 16-28 10-22 8-20 8-24 7-27 7-34 7-44v-5h-444v90h328l1 2-13 29-12 23-9 14-12 17-8 10-11 13-26 26-11 9-13 10-24 16-17 10-16 8-17 8-25 9-31 8-32 5-18 2h-15l-9 1-10-1h-9l-29-3-24-4-30-8-20-7-18-8-16-8-14-8-21-14-18-14-15-14-8-7-7-7-7-8-10-11-12-16-9-13-11-18-10-19-10-24-9-27-6-26-5-33-1-20v-28l1-19 6-39 8-30 9-25 13-28 14-23 10-14 10-13 11-13 14-15 11-11 8-7 13-11 19-14 13-8 15-9 29-14 22-8 23-6 23-5 22-3 12-1h50l31 4 23 5 24 7 21 8 24 11 24 14 16 11 12 9 10 8 14 12 13 12 10 11 9 11 14 18 11 17 11 19 14 29 5 12 106 1-12-36-11-27-14-29-11-19-14-22-16-21-11-14-7-7-7-8-23-23-8-7-16-13-16-12-27-18-28-16-23-11-27-11-28-9-28-7-27-5-34-4-35-2-33 2-20 2-29 5-28 7-33 11-24 10-22 10-22 12-20 12-20 14-13 10-11 9-10 9-12 11-13 13-7 8-11 12-15 20-10 14-12 19-14 25-13 27-11 29-7 21-2 5-2 1-18-5-83-22-13-4 1-7 7-27 9-27 10-23 13-27 13-23 11-18 12-18 14-19 9-11 11-13 7-8 11-12 30-30 11-9 16-13 19-14 17-12 28-17 18-10 23-12 28-12 37-13 26-8 29-7 29-5 23-3z" fill="#64CE20"/>
<path transform="translate(159,652)" d="m0 0" fill="#FEFFFE"/>
</svg>
