<?xml version="1.0" encoding="UTF-8"?>
<svg version="1.1" viewBox="0 0 1124 1152" width="1280" height="1280" xmlns="http://www.w3.org/2000/svg">
<path transform="translate(523,30)" d="m0 0h53l30 2 26 3 29 6 40 10 34 10 27 10 24 11 22 11 21 12 18 11 16 11 18 13 13 10 13 11 24 22 7 8 12 12 7 8 10 11 9 11 15 20 16 24 9 15 13 23 12 23 11 25 10 26 9 27 10 36 7 31 4 25 3 29 1 15v54l-2 29-5 36-7 34-8 30-12 35-12 29-11 24-12 22-10 17-15 23-10 14-9 12-14 17-12 14-7 7-3 4h-2l-1 3-8 7-17 17-8 7-13 11-13 10-19 14-12 8-16 10-19 11-22 12-28 13-23 9-22 7-24 7-33 8-26 5-28 4-33 3-30 1-39-2-37-5-44-8-29-8-27-9-30-12-21-9-20-10-23-13-21-13-11-8-17-12-17-14-16-13-10-10-8-7-16-16-7-8-13-14-9-11-14-18-26-39-13-23-12-23-11-25-10-26-9-28-1-7 10-4 73-21 9-2 4-1 3 8 13 36 14 30 12 23 12 20 8 12 13 17 9 12 14 15 9 10 14 14 8 7 10 9 20 15 15 11 20 12 17 10 33 16 29 11 24 8 33 8 43 6 33 2h21l23-1 40-5 37-8 38-12 29-12 26-13 27-16 18-12 21-16 10-8 12-11 11-9 15-16 8-8 9-11 13-16 10-14 12-19 9-16 13-25 11-27 11-33 9-39 11-63h-446v90h329l-1 5-7 17-9 19-13 22-8 12-10 14-10 12-7 8-7 7-7 8-10 9-13 11-19 14-20 13-21 12-21 10-27 10-25 7-26 5-22 3-14 1h-38l-25-2-27-4-24-6-30-10-18-8-16-8-17-10-12-8-16-12-10-8-15-14-19-19-7-8-12-15-13-18-14-24-13-27-10-28-6-23-5-26-2-15-1-13v-49l2-21 4-25 7-28 10-29 14-29 12-20 11-16 8-10 7-9 14-15 9-10 16-15 11-9 18-14 19-12 16-9 25-12 31-11 31-7 27-4 36-2 28 1 26 3 29 6 21 6 21 8 24 11 18 10 24 16 16 12 13 11 10 9 19 19 9 11 12 15 10 15 13 22 12 24 8 19 1 1 105 1-12-36-10-25-9-20-12-22-11-18-10-15-9-12-10-13-11-12-9-10-3-3v-2l-4-2-17-17-11-9-13-11-15-11-27-18-23-13-15-8-27-12-27-10-36-10-31-6-36-4-26-1h-27l-28 2-35 6-31 8-24 8-28 11-29 14-17 9-23 14-14 10-19 14-30 27-13 13-7 8-11 12-9 12-14 19-7 11-13 21-12 23-11 24-11 30-4 11-9-1-79-21-15-4-1-3 5-18 7-25 10-26 9-20 13-26 14-24 12-19 12-17 10-13 11-14 9-10 7-8 9-10 6-7h2l2-4 8-8h2l1-3 8-7 10-9 10-8 13-10 19-14 21-14 22-13 21-12 29-14 28-11 36-12 28-8 34-7 39-5z" fill="#FEFEFE"/>
</svg>
